<?xml version="1.0" encoding="UTF-8" standalone="no"?>
<svg
   xmlns:dc="http://purl.org/dc/elements/1.1/"
   xmlns:cc="http://creativecommons.org/ns#"
   xmlns:rdf="http://www.w3.org/1999/02/22-rdf-syntax-ns#"
   xmlns:svg="http://www.w3.org/2000/svg"
   xmlns="http://www.w3.org/2000/svg"
   id="svg34"
   width="328.76538"
   height="77.58004"
   version="1.1">
  <metadata
     id="metadata38">
    <rdf:RDF>
      <cc:Work
         rdf:about="">
        <dc:format>image/svg+xml</dc:format>
        <dc:type
           rdf:resource="http://purl.org/dc/dcmitype/StillImage" />
      </cc:Work>
    </rdf:RDF>
  </metadata>
  <defs
     id="SvgjsDefs18931" />
  <g
     style="fill:#ffffff"
     transform="translate(41.055381,-205.02998)"
     name="main_text"
     rel="mainfill"
     id="SvgjsG18932">
    <path
       id="path3"
       style="fill:#ffffff"
       d="m 13.38,226.12 q -0.33,0 -0.65,-0.01 -0.32,-0.01 -0.65,-0.01 L 12.01,224 q -0.88,-0.27 -1.83,-0.41 -0.94,-0.14 -1.59,-0.14 -0.9,0 -1.79,0.13 -0.88,0.12 -1.6,0.45 -0.71,0.32 -1.16,0.87 -0.45,0.55 -0.45,1.4 0,0.8 0.33,1.39 0.32,0.6 0.93,1.03 0.62,0.42 1.51,0.73 0.9,0.32 2.05,0.57 0.53,0.12 1.19,0.25 0.66,0.12 1.33,0.35 0.68,0.22 1.31,0.58 0.64,0.36 1.14,0.93 0.5,0.56 0.8,1.36 0.3,0.79 0.3,1.92 0,1.15 -0.53,2.04 -0.52,0.9 -1.45,1.53 -0.92,0.62 -2.15,0.96 -1.24,0.33 -2.66,0.33 -1.2,0 -2.76,-0.15 -1.56,-0.14 -3.26,-0.67 l 0.2,-3.52 h 1.4 v 2.25 q 0.77,0.2 1.85,0.35 1.07,0.15 1.94,0.15 0.85,0 1.85,-0.18 1,-0.17 1.86,-0.57 0.86,-0.4 1.42,-1.03 0.56,-0.62 0.56,-1.52 0,-1.02 -0.47,-1.68 -0.47,-0.66 -1.21,-1.09 -0.74,-0.42 -1.64,-0.66 -0.89,-0.24 -1.74,-0.44 -3.02,-0.57 -4.43,-1.84 -1.41,-1.28 -1.41,-3.37 0,-1.15 0.47,-1.97 0.48,-0.83 1.34,-1.35 0.86,-0.53 2.08,-0.76 1.22,-0.24 2.7,-0.24 1.02,0 2.27,0.16 1.25,0.16 3.04,0.69 z m 7.11,0.13 3.75,11.7 q 0.89,-2.94 1.84,-5.85 0.95,-2.91 1.85,-5.85 h 3.37 v 1.44 h -2 L 25.18,240 h -1.89 q -1.1,-3.1 -2.09,-6.15 -0.98,-3.06 -2.06,-6.16 h -2.02 v -1.44 z m 17.4,0 v 12.33 h 1.87 V 240 h -5.37 v -1.42 h 1.83 v -10.89 h -2.27 v -1.44 h 3.94 m -2.5,-3.55 q 0,-0.57 0.38,-0.9 0.37,-0.32 0.95,-0.32 0.57,0 0.93,0.32 0.36,0.33 0.36,0.9 0,0.6 -0.36,0.93 -0.36,0.32 -0.93,0.32 -0.58,0 -0.95,-0.31 -0.38,-0.31 -0.38,-0.94 z m 18.6,16.05 q 0.2,0.05 0.45,0.03 0.25,-0.03 0.67,-0.18 0.08,0.28 0.14,0.53 0.06,0.25 0.11,0.52 -0.57,0.28 -0.86,0.36 -0.29,0.09 -0.71,0.09 -0.5,0 -0.77,-0.1 -0.28,-0.1 -0.44,-0.31 -0.16,-0.21 -0.24,-0.51 -0.07,-0.3 -0.15,-0.7 h -0.1 q -0.32,0.42 -0.66,0.75 -0.34,0.32 -0.82,0.55 -0.49,0.22 -1.19,0.34 -0.7,0.13 -1.77,0.13 -1.32,-0.03 -2.19,-0.36 -0.86,-0.34 -1.38,-0.93 -0.52,-0.58 -0.74,-1.38 -0.21,-0.8 -0.21,-1.75 v -0.32 q 0,-1.8 1.35,-2.85 1.35,-1.05 4.34,-1.05 h 3.05 q 0,-1.04 -0.1,-1.79 -0.1,-0.75 -0.43,-1.24 -0.32,-0.49 -0.9,-0.72 -0.57,-0.24 -1.52,-0.24 -0.95,0 -1.81,0.12 -0.86,0.13 -1.66,0.25 v 0.83 h -1.2 q -0.05,-0.5 -0.08,-1 -0.04,-0.5 -0.09,-1 0.47,-0.12 1.1,-0.25 0.62,-0.12 1.3,-0.22 0.67,-0.1 1.33,-0.17 0.66,-0.06 1.26,-0.06 1.57,0 2.47,0.51 0.9,0.52 1.34,1.31 0.43,0.8 0.53,1.79 0.1,0.98 0.1,1.91 v 2.49 q 0,0.75 0,1.54 0,0.79 0.04,1.45 0.04,0.66 0.14,1.11 0.1,0.45 0.3,0.52 m -2.1,-5.79 H 48.7 q -2.1,0 -3.02,0.68 -0.93,0.67 -0.93,1.92 v 0.57 q 0,1.37 0.79,2 0.79,0.62 2.41,0.62 h 1 q 0.55,-0.05 1.07,-0.2 0.52,-0.15 0.94,-0.51 0.41,-0.36 0.66,-1 0.25,-0.63 0.27,-1.66 z m 8.26,-10.76 q 0.38,-0.05 0.76,-0.11 0.39,-0.06 0.77,-0.14 v 4.22 h 3.07 v 1.52 h -3.07 v 9.81 q 0,0.4 0.08,0.64 0.09,0.24 0.22,0.37 0.12,0.14 0.28,0.18 0.16,0.04 0.31,0.04 0.28,0 0.74,-0.05 0.46,-0.05 1.16,-0.2 0.05,0.35 0.13,0.62 0.07,0.28 0.15,0.63 -0.38,0.05 -0.64,0.12 -0.26,0.08 -0.52,0.14 -0.27,0.06 -0.6,0.11 -0.34,0.05 -0.84,0.05 -0.72,0 -1.15,-0.24 -0.42,-0.23 -0.65,-0.71 -0.22,-0.47 -0.28,-1.18 Q 60,237.3 60,236.33 v -8.64 h -2.54 l 0.35,-1.52 h 1.62 q 0.22,-0.32 0.36,-0.57 0.14,-0.25 0.23,-0.63 0.08,-0.37 0.11,-1.01 0.02,-0.63 0.02,-1.76 z m 6.99,0.03 v -1.45 h 3.97 v 16.12 q 0,1.4 0.16,2.24 0.17,0.84 0.37,1.18 -0.28,0.1 -0.5,0.18 -0.23,0.07 -0.5,0.15 -0.23,-0.13 -0.44,-0.39 -0.21,-0.26 -0.37,-0.73 -0.17,-0.48 -0.28,-1.24 -0.11,-0.76 -0.11,-1.91 v -14.15 z m 19.75,16.52 q 0.2,0.05 0.45,0.03 0.24,-0.03 0.67,-0.18 0.07,0.28 0.14,0.53 0.06,0.25 0.11,0.52 -0.58,0.28 -0.86,0.36 -0.29,0.09 -0.71,0.09 -0.5,0 -0.78,-0.1 -0.27,-0.1 -0.43,-0.31 -0.17,-0.21 -0.24,-0.51 -0.08,-0.3 -0.15,-0.7 h -0.1 q -0.33,0.42 -0.66,0.75 -0.34,0.32 -0.83,0.55 -0.48,0.22 -1.18,0.34 -0.7,0.13 -1.77,0.13 -1.33,-0.03 -2.19,-0.36 -0.86,-0.34 -1.38,-0.93 -0.53,-0.58 -0.74,-1.38 -0.21,-0.8 -0.21,-1.75 v -0.32 q 0,-1.8 1.35,-2.85 1.34,-1.05 4.34,-1.05 h 3.04 q 0,-1.04 -0.1,-1.79 -0.1,-0.75 -0.42,-1.24 -0.32,-0.49 -0.9,-0.72 -0.57,-0.24 -1.52,-0.24 -0.95,0 -1.81,0.12 -0.86,0.13 -1.66,0.25 v 0.83 h -1.2 q -0.05,-0.5 -0.09,-1 -0.03,-0.5 -0.08,-1 0.47,-0.12 1.09,-0.25 0.63,-0.12 1.3,-0.22 0.68,-0.1 1.34,-0.17 0.66,-0.06 1.26,-0.06 1.57,0 2.47,0.51 0.9,0.52 1.34,1.31 0.43,0.8 0.53,1.79 0.1,0.98 0.1,1.91 v 2.49 q 0,0.75 0,1.54 0,0.79 0.04,1.45 0.04,0.66 0.14,1.11 0.1,0.45 0.3,0.52 m -2.1,-5.79 h -3.2 q -2.09,0 -3.02,0.68 -0.92,0.67 -0.92,1.92 v 0.57 q 0,1.37 0.79,2 0.78,0.62 2.41,0.62 h 0.99 q 0.55,-0.05 1.08,-0.2 0.52,-0.15 0.93,-0.51 0.41,-0.36 0.66,-1 0.25,-0.63 0.28,-1.66 z m 16.52,-1.5 q 0,-1.97 -0.92,-2.94 -0.92,-0.98 -2.3,-0.98 -0.75,0 -1.48,0.15 -0.74,0.15 -1.38,0.45 -0.63,0.3 -1.13,0.79 -0.5,0.49 -0.75,1.16 V 240 H 91.7 v -11.06 q 0,-0.87 -0.22,-1.13 -0.23,-0.27 -0.53,-0.27 -0.15,0 -0.26,0.02 -0.11,0.01 -0.26,0.03 l -0.22,-1.22 q 0.22,-0.05 0.49,-0.14 0.28,-0.08 0.5,-0.08 0.6,0 0.9,0.15 0.3,0.15 0.46,0.41 0.17,0.26 0.24,0.62 0.08,0.36 0.23,0.81 0.4,-0.5 0.96,-0.88 0.56,-0.39 1.23,-0.65 0.68,-0.26 1.4,-0.4 0.72,-0.14 1.45,-0.14 1.3,0 2.22,0.46 0.92,0.47 1.51,1.21 0.59,0.75 0.86,1.73 0.28,0.97 0.28,2.02 v 5.46 q 0,0.55 0.07,0.92 0.07,0.36 0.29,0.55 0.21,0.18 0.58,0.22 0.38,0.04 0.95,-0.06 l 0.1,1.42 q -0.8,0.17 -1.47,0.16 -0.67,-0.01 -1.16,-0.3 -0.49,-0.28 -0.75,-0.88 -0.26,-0.6 -0.26,-1.6 z m 17.47,7.29 q 0.2,0.05 0.45,0.03 0.25,-0.03 0.68,-0.18 0.07,0.28 0.14,0.53 0.06,0.25 0.11,0.52 -0.58,0.28 -0.86,0.36 -0.29,0.09 -0.72,0.09 -0.49,0 -0.77,-0.1 -0.27,-0.1 -0.44,-0.31 -0.16,-0.21 -0.23,-0.51 -0.08,-0.3 -0.15,-0.7 h -0.1 q -0.33,0.42 -0.66,0.75 -0.34,0.32 -0.83,0.55 -0.48,0.22 -1.18,0.34 -0.7,0.13 -1.78,0.13 -1.32,-0.03 -2.18,-0.36 -0.86,-0.34 -1.38,-0.93 -0.53,-0.58 -0.74,-1.38 -0.21,-0.8 -0.21,-1.75 v -0.32 q 0,-1.8 1.34,-2.85 1.35,-1.05 4.35,-1.05 h 3.04 q 0,-1.04 -0.1,-1.79 -0.1,-0.75 -0.42,-1.24 -0.33,-0.49 -0.9,-0.72 -0.57,-0.24 -1.52,-0.24 -0.95,0 -1.81,0.12 -0.86,0.13 -1.66,0.25 v 0.83 h -1.2 q -0.05,-0.5 -0.09,-1 -0.03,-0.5 -0.08,-1 0.47,-0.12 1.09,-0.25 0.63,-0.12 1.3,-0.22 0.68,-0.1 1.34,-0.17 0.66,-0.06 1.26,-0.06 1.57,0 2.47,0.51 0.9,0.52 1.33,1.31 0.44,0.8 0.54,1.79 0.1,0.98 0.1,1.91 v 2.49 q 0,0.75 0,1.54 0,0.79 0.04,1.45 0.04,0.66 0.14,1.11 0.09,0.45 0.29,0.52 m -2.09,-5.79 h -3.2 q -2.09,0 -3.02,0.68 -0.92,0.67 -0.92,1.92 v 0.57 q 0,1.37 0.79,2 0.78,0.62 2.4,0.62 h 1 q 0.55,-0.05 1.08,-0.2 0.52,-0.15 0.93,-0.51 0.41,-0.36 0.66,-1 0.25,-0.63 0.28,-1.66 z m 25.61,-9.23 v -1.45 h 5.86 v 1.45 h -2.07 v 14.85 h 2.07 V 240 h -5.86 v -1.42 h 2.07 v -6.94 h -9.26 v 6.94 h 2.07 V 240 h -5.87 v -1.42 h 2.08 v -14.85 h -2.08 v -1.45 h 5.87 v 1.45 h -2.07 v 6.49 h 9.26 v -6.49 z m 20.46,15.02 q 0.2,0.05 0.45,0.03 0.25,-0.03 0.68,-0.18 0.07,0.28 0.13,0.53 0.07,0.25 0.12,0.52 -0.58,0.28 -0.86,0.36 -0.29,0.09 -0.72,0.09 -0.49,0 -0.77,-0.1 -0.27,-0.1 -0.44,-0.31 -0.16,-0.21 -0.23,-0.51 -0.08,-0.3 -0.15,-0.7 h -0.1 q -0.33,0.42 -0.66,0.75 -0.34,0.32 -0.83,0.55 -0.48,0.22 -1.18,0.34 -0.7,0.13 -1.78,0.13 -1.32,-0.03 -2.18,-0.36 -0.86,-0.34 -1.38,-0.93 -0.53,-0.58 -0.74,-1.38 -0.21,-0.8 -0.21,-1.75 v -0.32 q 0,-1.8 1.34,-2.85 1.35,-1.05 4.35,-1.05 h 3.04 q 0,-1.04 -0.1,-1.79 -0.1,-0.75 -0.42,-1.24 -0.33,-0.49 -0.9,-0.72 -0.57,-0.24 -1.52,-0.24 -0.95,0 -1.81,0.12 -0.86,0.13 -1.66,0.25 v 0.83 h -1.2 q -0.05,-0.5 -0.09,-1 -0.04,-0.5 -0.08,-1 0.47,-0.12 1.09,-0.25 0.63,-0.12 1.3,-0.22 0.68,-0.1 1.34,-0.17 0.66,-0.06 1.26,-0.06 1.57,0 2.47,0.51 0.9,0.52 1.33,1.31 0.44,0.8 0.54,1.79 0.1,0.98 0.1,1.91 v 2.49 q 0,0.75 0,1.54 0,0.79 0.04,1.45 0.03,0.66 0.13,1.11 0.1,0.45 0.3,0.52 m -2.09,-5.79 h -3.2 q -2.09,0 -3.02,0.68 -0.92,0.67 -0.92,1.92 v 0.57 q 0,1.37 0.79,2 0.78,0.62 2.4,0.62 h 1 q 0.55,-0.05 1.08,-0.2 0.52,-0.15 0.93,-0.51 0.41,-0.36 0.66,-1 0.25,-0.63 0.28,-1.66 z m 14.92,-6.69 h 3.62 v 10.98 q 0,0.7 0.18,1.08 0.17,0.37 0.6,0.37 0.22,0 0.5,-0.09 0.27,-0.08 0.62,-0.21 0.05,0.3 0.14,0.65 0.08,0.35 0.16,0.63 -0.65,0.25 -1.12,0.33 -0.48,0.09 -0.88,0.09 -0.65,0 -1.07,-0.32 -0.43,-0.33 -0.5,-1.25 -0.32,0.5 -0.8,0.81 -0.47,0.31 -1.05,0.5 -0.57,0.18 -1.22,0.26 -0.65,0.07 -1.3,0.07 -1.05,0 -1.99,-0.22 -0.95,-0.22 -1.69,-0.87 -0.74,-0.65 -1.17,-1.81 -0.44,-1.16 -0.44,-3.04 v -6.54 h -1.9 v -1.44 h 3.57 v 7.86 q 0,1.42 0.28,2.32 0.27,0.9 0.76,1.41 0.49,0.51 1.16,0.71 0.67,0.2 1.45,0.2 0.67,0 1.39,-0.09 0.73,-0.08 1.33,-0.43 0.6,-0.35 0.97,-1.09 0.38,-0.73 0.38,-2.01 v -7.44 h -1.98 z m 18.8,2.75 h -1.62 v -1.38 q -0.43,-0.05 -0.85,-0.08 -0.43,-0.04 -0.93,-0.04 -1.12,0 -2.04,0.57 -0.93,0.58 -1.28,1.98 V 240 h -1.64 v -12.31 h -2.25 q 0,-0.34 0,-0.72 0,-0.37 -0.02,-0.72 h 3.69 v 1.34 q 0.52,-0.79 1.43,-1.21 0.92,-0.41 2.11,-0.41 0.38,0 0.73,0.01 0.35,0.02 0.73,0.07 0.39,0.05 0.87,0.15 0.47,0.1 1.09,0.27 z m 13.28,9.58 q -0.68,0.9 -1.74,1.24 -1.06,0.33 -2.33,0.33 -1.1,0 -2.02,-0.22 -0.93,-0.22 -1.61,-0.87 -0.69,-0.65 -1.08,-1.81 -0.38,-1.16 -0.38,-3.04 v -6.54 h -1.93 v -1.44 h 3.55 v 7.71 q 0,1.45 0.27,2.37 0.28,0.92 0.74,1.46 0.46,0.54 1.1,0.75 0.63,0.21 1.38,0.21 0.7,0 1.43,-0.09 0.72,-0.08 1.31,-0.46 0.58,-0.37 0.95,-1.11 0.36,-0.73 0.36,-2.03 v -7.37 h -2.4 v -1.44 h 4.07 v 12.88 q 0,1.94 -0.46,3.15 -0.46,1.21 -1.23,1.9 -0.76,0.69 -1.78,0.94 -1.02,0.25 -2.15,0.25 -1.54,0 -2.84,-0.42 -1.3,-0.41 -2.12,-1.58 l 0.82,-1.17 q 0.37,0.57 0.85,0.9 0.47,0.32 1,0.49 0.52,0.18 1.08,0.23 0.56,0.05 1.09,0.05 0.6,0 1.31,-0.1 0.71,-0.1 1.32,-0.51 0.61,-0.41 1.03,-1.24 0.41,-0.82 0.41,-2.27 z m 3.87,-16.37 v -1.45 h 3.96 v 16.12 q 0,1.4 0.17,2.24 0.16,0.84 0.36,1.18 -0.28,0.1 -0.5,0.18 -0.23,0.07 -0.5,0.15 -0.22,-0.13 -0.44,-0.39 -0.21,-0.26 -0.37,-0.73 -0.16,-0.48 -0.28,-1.24 -0.11,-0.76 -0.11,-1.91 v -14.15 z m 19.74,16.52 q 0.2,0.05 0.45,0.03 0.25,-0.03 0.67,-0.18 0.08,0.28 0.14,0.53 0.06,0.25 0.11,0.52 -0.57,0.28 -0.86,0.36 -0.29,0.09 -0.71,0.09 -0.5,0 -0.77,-0.1 -0.28,-0.1 -0.44,-0.31 -0.16,-0.21 -0.24,-0.51 -0.07,-0.3 -0.15,-0.7 h -0.1 q -0.32,0.42 -0.66,0.75 -0.34,0.32 -0.82,0.55 -0.49,0.22 -1.19,0.34 -0.7,0.13 -1.77,0.13 -1.32,-0.03 -2.18,-0.36 -0.87,-0.34 -1.39,-0.93 -0.52,-0.58 -0.74,-1.38 -0.21,-0.8 -0.21,-1.75 v -0.32 q 0,-1.8 1.35,-2.85 1.35,-1.05 4.34,-1.05 h 3.05 q 0,-1.04 -0.1,-1.79 -0.1,-0.75 -0.43,-1.24 -0.32,-0.49 -0.89,-0.72 -0.58,-0.24 -1.53,-0.24 -0.95,0 -1.81,0.12 -0.86,0.13 -1.66,0.25 v 0.83 h -1.2 q -0.04,-0.5 -0.08,-1 -0.04,-0.5 -0.09,-1 0.47,-0.12 1.1,-0.25 0.62,-0.12 1.3,-0.22 0.67,-0.1 1.33,-0.17 0.66,-0.06 1.26,-0.06 1.57,0 2.47,0.51 0.9,0.52 1.34,1.31 0.44,0.8 0.54,1.79 0.1,0.98 0.1,1.91 v 2.49 q 0,0.75 0,1.54 0,0.79 0.03,1.45 0.04,0.66 0.14,1.11 0.1,0.45 0.3,0.52 m -2.1,-5.79 h -3.19 q -2.1,0 -3.02,0.68 -0.93,0.67 -0.93,1.92 v 0.57 q 0,1.37 0.79,2 0.79,0.62 2.41,0.62 h 1 q 0.55,-0.05 1.07,-0.2 0.52,-0.15 0.94,-0.51 0.41,-0.36 0.66,-1 0.25,-0.63 0.27,-1.66 z m 8.71,-6.71 3.75,11.7 q 0.9,-2.94 1.84,-5.85 0.95,-2.91 1.85,-5.85 h 3.37 v 1.44 h -2 L 242.59,240 h -1.9 q -1.1,-3.1 -2.08,-6.15 -0.99,-3.06 -2.06,-6.16 h -2.03 v -1.44 z m 19.7,14.02 q -1.15,0 -2.21,-0.23 -1.06,-0.24 -1.87,-0.89 -0.81,-0.65 -1.3,-1.83 -0.49,-1.19 -0.49,-3.06 v -2.12 q 0,-1.92 0.5,-3.11 0.5,-1.19 1.32,-1.85 0.83,-0.66 1.9,-0.88 1.07,-0.23 2.2,-0.23 1.12,0 2.12,0.26 1,0.27 1.75,0.9 0.74,0.64 1.18,1.7 0.44,1.06 0.44,2.63 0,0.5 -0.03,1.04 -0.02,0.54 -0.1,0.86 h -9.68 q 0,1.8 0.31,2.85 0.31,1.04 0.87,1.59 0.57,0.55 1.34,0.71 0.77,0.17 1.72,0.17 1.57,0 2.57,-0.15 1,-0.15 1.8,-0.4 0.13,0.3 0.25,0.62 0.12,0.33 0.25,0.63 -0.8,0.35 -2,0.57 -1.2,0.22 -2.84,0.22 m 0,-12.8 q -0.73,0 -1.49,0.12 -0.76,0.13 -1.37,0.6 -0.61,0.48 -1.01,1.41 -0.4,0.94 -0.4,2.56 h 8.14 q 0.07,-0.45 0.07,-0.97 0,-1 -0.36,-1.71 -0.36,-0.71 -0.92,-1.16 -0.57,-0.45 -1.27,-0.65 -0.69,-0.2 -1.39,-0.2 z m 11.23,-5.27 q 0.37,-0.05 0.76,-0.11 0.39,-0.06 0.76,-0.14 v 4.22 h 3.07 v 1.52 h -3.07 v 9.81 q 0,0.4 0.09,0.64 0.09,0.24 0.21,0.37 0.13,0.14 0.29,0.18 0.16,0.04 0.31,0.04 0.27,0 0.74,-0.05 0.46,-0.05 1.16,-0.2 0.05,0.35 0.12,0.62 0.08,0.28 0.15,0.63 -0.37,0.05 -0.63,0.12 -0.27,0.08 -0.53,0.14 -0.26,0.06 -0.6,0.11 -0.33,0.05 -0.83,0.05 -0.73,0 -1.15,-0.24 -0.43,-0.23 -0.65,-0.71 -0.23,-0.47 -0.29,-1.18 -0.06,-0.72 -0.06,-1.69 v -8.64 h -2.55 l 0.35,-1.52 h 1.63 q 0.22,-0.32 0.36,-0.57 0.13,-0.25 0.22,-0.63 0.09,-0.37 0.11,-1.01 0.03,-0.63 0.03,-1.76 z m 16.65,7.44 v -1.9 q -0.7,-0.27 -1.45,-0.33 -0.75,-0.06 -1.35,-0.06 -0.8,0 -1.5,0.11 -0.69,0.11 -1.21,0.37 -0.51,0.26 -0.79,0.66 -0.29,0.4 -0.29,0.95 0,1.2 0.77,1.72 0.78,0.53 2.42,0.73 0.48,0.07 1.08,0.14 0.6,0.06 1.22,0.18 0.62,0.13 1.22,0.35 0.6,0.23 1.08,0.65 0.47,0.43 0.76,1.06 0.28,0.64 0.28,1.56 0,2.2 -1.49,3.32 -1.5,1.12 -3.97,1.12 -1.1,0 -2.47,-0.11 -1.38,-0.11 -2.8,-0.53 0.05,-0.8 0.03,-1.56 -0.03,-0.77 0,-1.56 h 1.64 v 1.84 q 0.78,0.25 1.75,0.38 0.97,0.12 1.7,0.12 1.05,0 1.78,-0.27 0.74,-0.28 1.21,-0.71 0.48,-0.44 0.69,-1 0.21,-0.56 0.21,-1.14 0,-0.7 -0.39,-1.12 -0.38,-0.43 -0.99,-0.66 -0.62,-0.24 -1.39,-0.36 -0.77,-0.13 -1.55,-0.23 -2.44,-0.3 -3.43,-1.21 -0.98,-0.91 -0.98,-2.53 0,-2 1.42,-2.84 1.42,-0.83 3.99,-0.83 0.85,0 1.89,0.1 1.03,0.1 2.53,0.52 v 3.07 z" />
  </g>
  <g
     style="fill:#ffffff"
     transform="translate(100.61537,-180.46998)"
     name="slogan_text"
     rel="mainfill"
     id="SvgjsG18933">
    <path
       id="path6"
       style="fill:#ffffff"
       d="M 4.36,234.53 V 240 h -1.3 v -5.47 H 0.58 v -1.13 h 6.26 v 1.13 z m 10.26,1.57 h 0.96 v 0.01 q 0.78,-0.04 1.01,-0.27 0.23,-0.23 0.23,-0.53 0,-0.31 -0.23,-0.54 -0.23,-0.23 -1.01,-0.27 v 0.02 h -0.96 v 1.58 m 0,1.18 v 1.59 h 0.96 v 0 q 0.78,-0.03 1.01,-0.26 0.23,-0.23 0.23,-0.53 0,-0.31 -0.23,-0.54 -0.23,-0.23 -1.01,-0.26 v 0 h -0.96 m -1.3,-3.9 h 3.03 v 0.03 q 0.61,0.03 1.19,0.61 0.58,0.58 0.58,1.29 v 0 q 0,0.7 -0.59,1.38 0.59,0.68 0.59,1.38 v 0.01 q 0,0.71 -0.58,1.29 -0.58,0.58 -1.19,0.61 V 240 h -3.03 z m 14.75,-0.52 q 1.58,0 2.66,1.08 1.07,1.08 1.07,2.58 0,1.48 -1.07,2.57 -1.08,1.08 -2.66,1.08 -1.57,0 -2.66,-1.08 -1.08,-1.09 -1.08,-2.57 0,-1.5 1.08,-2.58 1.09,-1.08 2.66,-1.08 m 0,1.15 q -0.98,0 -1.69,0.73 -0.72,0.72 -0.72,1.78 0,1.05 0.72,1.77 0.71,0.71 1.69,0.71 0.97,0 1.68,-0.71 0.72,-0.72 0.72,-1.77 0,-1.06 -0.72,-1.78 -0.71,-0.73 -1.68,-0.73 z m 10.08,-0.61 h 1.3 v 4.32 l 3.25,-4.32 h 1.18 v 6.6 h -1.3 v -4.38 l -3.13,4.16 V 240 h -1.3 v -6.6 m 4.73,-2.59 q -0.24,0.74 -0.54,1.04 -0.54,0.55 -1.31,0.55 -0.8,0 -1.33,-0.55 -0.31,-0.31 -0.56,-1.04 h 1.24 q 0.14,0.29 0.23,0.38 0.17,0.18 0.42,0.18 0.22,0 0.4,-0.19 0.09,-0.08 0.23,-0.37 z m 23.55,5.04 v 1.33 q 0.15,0.63 0.65,1.13 0.7,0.7 1.66,0.7 0.98,0 1.69,-0.72 0.72,-0.72 0.72,-1.77 0,-1.06 -0.72,-1.78 -0.72,-0.73 -1.69,-0.73 -0.96,0 -1.66,0.71 -0.5,0.5 -0.65,1.13 m -1.31,1.33 v -1.33 q -0.15,-0.63 -0.66,-1.13 -0.69,-0.71 -1.66,-0.71 -0.98,0 -1.69,0.73 -0.72,0.72 -0.72,1.78 0,1.05 0.72,1.77 0.71,0.72 1.69,0.72 0.97,0 1.66,-0.7 0.51,-0.5 0.66,-1.13 m 1.31,-3.32 q 0.75,-1 2.31,-1 1.58,0 2.66,1.08 1.08,1.08 1.08,2.58 0,1.48 -1.08,2.57 -1.08,1.08 -2.66,1.08 -1.56,0 -2.31,-1 v 3.03 h -1.31 v -3.03 q -0.75,1 -2.32,1 -1.59,0 -2.67,-1.08 -1.07,-1.09 -1.07,-2.57 0,-1.5 1.08,-2.58 1.08,-1.08 2.66,-1.08 1.56,0 2.32,1 v -3.02 h 1.31 z m 16,-1 q 1.58,0 2.65,1.08 1.08,1.08 1.08,2.58 0,1.48 -1.08,2.57 -1.07,1.08 -2.65,1.08 -1.57,0 -2.66,-1.08 -1.08,-1.09 -1.08,-2.57 0,-1.5 1.08,-2.58 1.09,-1.08 2.66,-1.08 m 0,1.15 q -0.98,0 -1.69,0.73 -0.72,0.72 -0.72,1.78 0,1.05 0.72,1.77 0.71,0.71 1.69,0.71 0.96,0 1.68,-0.71 0.72,-0.72 0.72,-1.77 0,-1.06 -0.72,-1.78 -0.72,-0.73 -1.68,-0.73 z m 13.79,0.52 V 240 h -1.3 v -5.47 h -2.49 v -1.13 h 6.27 v 1.13 z m 12.49,-1.67 q 1.58,0 2.66,1.08 1.07,1.08 1.07,2.58 0,1.48 -1.07,2.57 -1.08,1.08 -2.66,1.08 -1.57,0 -2.65,-1.08 -1.09,-1.09 -1.09,-2.57 0,-1.5 1.09,-2.58 1.08,-1.08 2.65,-1.08 m 0,1.15 q -0.97,0 -1.69,0.73 -0.71,0.72 -0.71,1.78 0,1.05 0.71,1.77 0.72,0.71 1.69,0.71 0.97,0 1.69,-0.71 0.72,-0.72 0.72,-1.77 0,-1.06 -0.72,-1.78 -0.72,-0.73 -1.69,-0.73 z m 11.45,0.52 V 240 h -1.3 v -6.6 h 3.79 v 1.13 z m 8.83,-1.13 h 1.31 v 0.76 q 0.77,-1.3 2.35,-1.3 1.57,0 2.66,1.08 1.08,1.08 1.08,2.58 0,1.48 -1.08,2.57 -1.09,1.08 -2.66,1.08 -1.58,0 -2.35,-1.3 v 3.43 h -1.31 v -8.9 m 1.31,2.56 v 1.12 q 0.13,0.7 0.67,1.23 0.71,0.7 1.68,0.7 0.97,0 1.68,-0.72 0.72,-0.72 0.72,-1.77 0,-1.06 -0.72,-1.78 -0.71,-0.73 -1.68,-0.73 -0.97,0 -1.71,0.74 -0.51,0.51 -0.64,1.21 z m 19.64,4.04 h -1.31 v -1.16 q -0.77,1.33 -2.36,1.33 -1.56,0 -2.65,-1.08 -1.09,-1.09 -1.09,-2.57 0,-1.5 1.09,-2.58 1.09,-1.08 2.65,-1.08 1.59,0 2.36,1.31 v -0.77 h 1.31 v 6.6 m -1.31,-2.96 v -1.06 q -0.14,-0.71 -0.66,-1.23 -0.73,-0.74 -1.7,-0.74 -0.97,0 -1.69,0.73 -0.71,0.72 -0.71,1.78 0,1.05 0.71,1.77 0.72,0.71 1.69,0.71 0.97,0 1.7,-0.73 0.52,-0.52 0.66,-1.23 z m 15,-1.19 v 1.33 q 0.15,0.63 0.65,1.13 0.7,0.7 1.66,0.7 0.98,0 1.69,-0.72 0.72,-0.72 0.72,-1.77 0,-1.06 -0.72,-1.78 -0.72,-0.73 -1.69,-0.73 -0.96,0 -1.66,0.71 -0.5,0.5 -0.65,1.13 m -1.31,1.33 v -1.33 q -0.15,-0.63 -0.66,-1.13 -0.69,-0.71 -1.66,-0.71 -0.97,0 -1.69,0.73 -0.71,0.72 -0.71,1.78 0,1.05 0.71,1.77 0.72,0.72 1.69,0.72 0.97,0 1.66,-0.7 0.51,-0.5 0.66,-1.13 m 1.31,-3.32 q 0.75,-1 2.31,-1 1.59,0 2.67,1.08 1.07,1.08 1.07,2.58 0,1.48 -1.07,2.57 -1.08,1.08 -2.67,1.08 -1.56,0 -2.31,-1 v 3.03 h -1.31 v -3.03 q -0.75,1 -2.32,1 -1.59,0 -2.66,-1.08 -1.08,-1.09 -1.08,-2.57 0,-1.5 1.08,-2.58 1.08,-1.08 2.66,-1.08 1.56,0 2.32,1 v -3.02 h 1.31 z" />
  </g>
  <g
     style="fill:#ffffff"
     transform="matrix(1.65,0,0,1.65,-26.562919,-1.6348135)"
     name="symbol"
     rel="mainfill"
     id="SvgjsG18934">
    <g
       style="fill:#ffffff"
       id="g31">
      <path
         id="path9"
         style="fill:#ffffff"
         d="m 24.402,9.539 c 0.734,-0.625 0.764,-1.809 -0.03,-2.47 0.22,-0.25 0.37,-0.56 0.43,-0.89 -0.35,0.74 -0.95,1.35 -1.73,1.72 v 1.03 c 0.12,0.04 0.2,0.07 0.21,0.07 0.4,0.12 0.77,0.31 1.12,0.54 z" />
      <path
         id="path11"
         style="fill:#ffffff"
         d="m 19.902,8.149 v -1.79 c -1.402,-1.628 0.294,-4.218 1.97,-3.17 2.137,-0.056 1.852,0.092 2.77,-0.47 l 0.15,0.35 c 0.33,-0.5 0.32,-1.21 -0.25,-1.61 -1.014,-0.705 -3.988,-0.742 -5.52,0.79 -0.42,0.19 -0.75,0.5 -0.97,0.87 h -0.01 c -0.64,0.43 -0.99,1.13 -0.99,1.85 -0.849,0.659 -0.936,1.668 -0.49,2.43 -0.635,0.635 -0.644,1.536 0.14,2.12 -0.496,0.604 -0.368,1.432 0.05,1.78 -0.144,-1.589 0.927,-3.521 3.15,-3.15 z" />
      <path
         id="path13"
         style="fill:#ffffff"
         d="m 29.192,7.249 c -0.128,0.005 -0.21,0.01 -0.32,0.01 l 0.1,0.19 -1.18,5.21 -0.71,-0.4 c -0.001,0.016 -0.23,2.774 -0.23,2.79 l 0.98,0.48 c 0.74,0.36 1.6,-0.16 1.64,-0.98 10e-4,-0.015 0.28,-7.135 0.28,-7.15 -0.225,0 -0.367,0.008 -0.56,-0.15 z" />
      <path
         id="path15"
         style="fill:#ffffff"
         d="m 18.972,27.389 -0.24,19.15 h 0.004 v 1.47 h 1.865 c 0.246,0 0.444,-0.198 0.444,-0.445 0,-0.162 -0.088,-0.311 -0.231,-0.388 l -1.163,-0.639 3.34,-12.858 c -0.727,-1 -3.049,-3.994 -4.019,-6.29 z" />
      <path
         id="path17"
         style="fill:#ffffff"
         d="m 29.452,4.809 c 0,2.492 -0.296,2.09 1.1,2.09 v -2.25 h -0.95 c -0.09,0 -0.15,0.08 -0.15,0.16 z" />
      <path
         id="path19"
         style="fill:#ffffff"
         d="m 32.743,4.489 h -1.53 c -0.087,0 -0.159,0.072 -0.159,0.164 V 6.9 c 0,0.087 0.072,0.158 0.159,0.158 h 1.53 c 0.087,0 0.159,-0.071 0.159,-0.158 V 4.653 c 0,-0.092 -0.072,-0.164 -0.159,-0.164 z" />
      <path
         id="path21"
         style="fill:#ffffff"
         d="m 27.652,6.609 h 0.53 c 0,0.241 0.506,0.15 0.77,0.15 0,-0.143 0,-1.572 0,-1.97 -0.245,0 -0.77,-0.073 -0.77,0.15 h -0.56 c 0,-0.332 0.075,-0.64 -0.199,-0.64 0,-0.772 -0.068,-0.596 -1.365,-0.596 -0.329,0 -0.298,0.291 -0.298,0.596 -0.139,0 -0.198,0.066 -0.198,0.15 v 1.34 c 0.519,-0.369 1.959,-0.098 2.09,0.82 z" />
      <path
         id="path23"
         style="fill:#ffffff"
         d="m 22.572,8.769 v -1.21 c 1.749,-0.62 2.522,-2.564 1.84,-4.11 -0.456,0.278 -2.136,0.227 -2.69,0.24 -1.29,-1.019 -2.554,1.321 -1.32,2.47 v 2.07 c 0.82,0.14 1.62,0.37 2.17,0.54 z" />
      <path
         id="path25"
         style="fill:#ffffff"
         d="m 19.702,20.789 c -0.28,2.03 -0.68,2.47 -0.68,2.47 2.759,0.771 3.878,0.105 6.75,-0.29 0,0 -0.42,-4.55 -0.76,-6.43 -0.479,-0.071 -4.055,-2.088 -4.48,-2.32 -1.689,-0.924 0.723,-3.764 2.09,-3.08 1.579,0.975 1.182,0.73 1.83,1.13 0.282,-1.043 0.184,-0.678 0.46,-1.71 -1.37,-1.224 -4.083,-1.828 -5.42,-1.96 -1.63,-0.16 -2.6,1.72 -2.13,3.22 0.47,1.5 2.63,6.94 2.34,8.97 z" />
      <path
         id="path27"
         style="fill:#ffffff"
         d="m 22.362,11.571 c 0,0 -1.096,-0.213 -1.853,1.373 -0.145,0.303 -0.033,0.673 0.262,0.833 6.477,3.527 5.372,3.797 6.171,-5.897 l 0.28,-0.75 C 27.2,6.97 27.167,6.477 27.052,6.4 26.694,6.226 25.743,5.957 25.782,6.35 l 0.05,0.86 0.33,0.67 -1.4,5.16 z" />
      <path
         id="path29"
         style="fill:#ffffff"
         d="m 25.912,26.829 c -0.293,-1.143 -0.345,-2.371 -0.21,-3.34 -1.405,0 -3.49,1.195 -6.69,0.28 -0.07,-0.01 -0.11,-0.03 -0.12,-0.03 l -0.09,-0.02 c -0.1,0.39 -0.13,1.07 0.19,2.2 0.08,0.31 0.19,0.65 0.34,1.03 0.895,2.33 3.958,6.383 5.37,8.09 l -1.03,10.75 0.002,10e-4 -0.681,1.306 1.654,0.862 c 0.218,0.114 0.486,0.029 0.6,-0.189 0.075,-0.144 0.065,-0.317 -0.025,-0.451 l -0.739,-1.108 -0.629,-0.328 0.628,0.326 3.24,-11.21 c 0.253,-0.804 0.044,-0.975 -1.81,-8.169 z" />
    </g>
  </g>
</svg>
